<svg width="26" height="26" viewBox="0 0 26 26" fill="none" xmlns="http://www.w3.org/2000/svg">
<path fill-rule="evenodd" clip-rule="evenodd" d="M6.77079 3.79163C3.79163 3.79163 3.79163 4.01696 3.79163 6.77079V6.79788C3.79163 7.99713 3.79163 8.86379 4.08521 9.22996C4.37229 9.58529 5.22488 9.74996 6.77079 9.74996C8.31671 9.74996 9.16929 9.58421 9.45638 9.22888C9.74996 8.86379 9.74996 7.99713 9.74996 6.79679C9.74996 4.01696 9.74996 3.79163 6.77079 3.79163ZM6.77079 11.375C4.94429 11.375 3.57388 11.1832 2.82096 10.2483C2.16663 9.43688 2.16663 8.32971 2.16663 6.79788L2.97913 6.77079H2.16663C2.16663 3.66163 2.36271 2.16663 6.77079 2.16663C11.1789 2.16663 11.375 3.66163 11.375 6.77079C11.375 8.32863 11.375 9.43688 10.7206 10.2483C9.96771 11.1832 8.59729 11.375 6.77079 11.375Z" fill="#1E1C28" fill-opacity="0.4"/>
<path fill-rule="evenodd" clip-rule="evenodd" d="M18.6874 3.79163C15.7083 3.79163 15.7083 4.01696 15.7083 6.77079V6.79788C15.7083 7.99713 15.7083 8.86379 16.0018 9.22996C16.2889 9.58529 17.1415 9.74996 18.6874 9.74996C20.2333 9.74996 21.0859 9.58421 21.373 9.22888C21.6666 8.86379 21.6666 7.99713 21.6666 6.79679C21.6666 4.01696 21.6666 3.79163 18.6874 3.79163ZM18.6874 11.375C16.8609 11.375 15.4905 11.1832 14.7376 10.2483C14.0833 9.43688 14.0833 8.32971 14.0833 6.79788L14.8958 6.77079H14.0833C14.0833 3.66163 14.2793 2.16663 18.6874 2.16663C23.0955 2.16663 23.2916 3.66163 23.2916 6.77079C23.2916 8.32863 23.2916 9.43688 22.6373 10.2483C21.8843 11.1832 20.5139 11.375 18.6874 11.375Z" fill="#1E1C28" fill-opacity="0.4"/>
<path fill-rule="evenodd" clip-rule="evenodd" d="M6.77079 15.7083C3.79163 15.7083 3.79163 15.9336 3.79163 18.6874V18.7145C3.79163 19.9138 3.79163 20.7804 4.08521 21.1466C4.37229 21.5019 5.22488 21.6666 6.77079 21.6666C8.31671 21.6666 9.16929 21.5008 9.45638 21.1455C9.74996 20.7804 9.74996 19.9138 9.74996 18.7134C9.74996 15.9336 9.74996 15.7083 6.77079 15.7083ZM6.77079 23.2916C4.94429 23.2916 3.57388 23.0998 2.82096 22.1649C2.16663 21.3535 2.16663 20.2463 2.16663 18.7145L2.97913 18.6874H2.16663C2.16663 15.5783 2.36271 14.0833 6.77079 14.0833C11.1789 14.0833 11.375 15.5783 11.375 18.6874C11.375 20.2453 11.375 21.3535 10.7206 22.1649C9.96771 23.0998 8.59729 23.2916 6.77079 23.2916Z" fill="#1E1C28" fill-opacity="0.4"/>
<path fill-rule="evenodd" clip-rule="evenodd" d="M18.6874 15.7083C15.7083 15.7083 15.7083 15.9336 15.7083 18.6874V18.7145C15.7083 19.9138 15.7083 20.7804 16.0018 21.1466C16.2889 21.5019 17.1415 21.6666 18.6874 21.6666C20.2333 21.6666 21.0859 21.5008 21.373 21.1455C21.6666 20.7804 21.6666 19.9138 21.6666 18.7134C21.6666 15.9336 21.6666 15.7083 18.6874 15.7083ZM18.6874 23.2916C16.8609 23.2916 15.4905 23.0998 14.7376 22.1649C14.0833 21.3535 14.0833 20.2463 14.0833 18.7145L14.8958 18.6874H14.0833C14.0833 15.5783 14.2793 14.0833 18.6874 14.0833C23.0955 14.0833 23.2916 15.5783 23.2916 18.6874C23.2916 20.2453 23.2916 21.3535 22.6373 22.1649C21.8843 23.0998 20.5139 23.2916 18.6874 23.2916Z" fill="#1E1C28" fill-opacity="0.4"/>
</svg>
