<svg width="26" height="26" viewBox="0 0 26 26" fill="none" xmlns="http://www.w3.org/2000/svg">
<g clip-path="url(#clip0_45_347)">
<path d="M8.66663 7.58333C8.66663 8.73261 9.12317 9.83481 9.93583 10.6475C10.7485 11.4601 11.8507 11.9167 13 11.9167C14.1492 11.9167 15.2514 11.4601 16.0641 10.6475C16.8767 9.83481 17.3333 8.73261 17.3333 7.58333C17.3333 6.43406 16.8767 5.33186 16.0641 4.5192C15.2514 3.70655 14.1492 3.25 13 3.25C11.8507 3.25 10.7485 3.70655 9.93583 4.5192C9.12317 5.33186 8.66663 6.43406 8.66663 7.58333Z" stroke="#9C4EDC" stroke-width="2" stroke-linecap="round" stroke-linejoin="round"/>
<path d="M6.5 22.75V20.5833C6.5 19.4341 6.95655 18.3319 7.7692 17.5192C8.58186 16.7065 9.68406 16.25 10.8333 16.25H14.625" stroke="#9C4EDC" stroke-width="2" stroke-linecap="round" stroke-linejoin="round"/>
<path d="M19.955 16.9109C20.1663 16.6996 20.4171 16.532 20.6931 16.4177C20.9691 16.3034 21.265 16.2445 21.5638 16.2445C21.8625 16.2445 22.1584 16.3034 22.4344 16.4177C22.7104 16.532 22.9612 16.6996 23.1725 16.9109C23.3838 17.1221 23.5513 17.3729 23.6657 17.649C23.78 17.925 23.8389 18.2208 23.8389 18.5196C23.8389 18.8184 23.78 19.1142 23.6657 19.3903C23.5513 19.6663 23.3838 19.9171 23.1725 20.1284L19.5 23.8334H16.25V20.5834L19.955 16.9109Z" stroke="#9C4EDC" stroke-width="2" stroke-linecap="round" stroke-linejoin="round"/>
</g>
<defs>
<clipPath id="clip0_45_347">
<rect width="26" height="26" fill="white"/>
</clipPath>
</defs>
</svg>
