<svg width="26" height="26" viewBox="0 0 26 26" fill="none" xmlns="http://www.w3.org/2000/svg">
<path fill-rule="evenodd" clip-rule="evenodd" d="M9.73093 6.82879C9.69627 6.82879 9.6616 6.83313 9.62693 6.84179C6.40943 7.63371 3.7921 11.1199 3.7921 14.6125C3.7921 19.0065 7.3671 22.5815 11.7622 22.5815C15.7239 22.5815 19.0346 19.7595 19.6348 15.8703C19.6391 15.8378 19.6543 15.7435 19.5654 15.6385C19.4809 15.5399 19.3466 15.4814 19.2058 15.4814C17.6772 15.4814 16.5104 15.516 15.5993 15.542C13.3937 15.6081 12.4815 15.633 11.5802 14.9646C10.2217 13.9582 10.1068 12.2292 10.1068 7.14404C10.1068 7.05304 10.0678 6.97721 9.98985 6.91654C9.91727 6.85913 9.82518 6.82879 9.73093 6.82879ZM11.7622 24.2065C6.47118 24.2065 2.1671 19.9025 2.1671 14.6125C2.1671 10.4179 5.3391 6.22321 9.23802 5.26338C9.84685 5.11496 10.5012 5.25363 10.993 5.63713C11.4621 6.00546 11.7318 6.55471 11.7318 7.14404C11.7318 11.8945 11.8922 13.1728 12.5476 13.6592C12.9777 13.9766 13.567 13.9734 15.5528 13.9181C16.4758 13.891 17.6577 13.8564 19.2058 13.8564C19.8233 13.8564 20.405 14.1207 20.7993 14.5811C21.1655 15.009 21.3258 15.568 21.2413 16.1184C20.5177 20.8038 16.531 24.2065 11.7622 24.2065Z" fill="#1E1C28" fill-opacity="0.4"/>
<mask id="mask0_5_69526" style="mask-type:luminance" maskUnits="userSpaceOnUse" x="13" y="1" width="12" height="12">
<path fill-rule="evenodd" clip-rule="evenodd" d="M13.5135 1.08386H24.8007V12.2306H13.5135V1.08386Z" fill="white"/>
</mask>
<g mask="url(#mask0_5_69526)">
<path fill-rule="evenodd" clip-rule="evenodd" d="M15.1784 2.71026C15.0592 5.43918 15.2358 8.96434 15.3181 10.3608C15.3224 10.4442 15.3831 10.5048 15.4654 10.5092C16.5791 10.5731 20.4163 10.7508 23.1755 10.3445C23.182 8.82351 22.1409 6.76084 20.5734 5.19434C18.9657 3.58884 17.0634 2.71026 15.2022 2.71026H15.1784ZM18.7577 12.2306C17.3385 12.2306 16.0894 12.1732 15.3712 12.132C14.4677 12.0789 13.7484 11.3585 13.6964 10.455C13.6119 9.02284 13.4288 5.38393 13.5588 2.56943C13.5945 1.75151 14.2554 1.10043 15.0635 1.08634C17.3786 1.01918 19.7674 2.09384 21.7217 4.04493C23.6262 5.94834 24.8352 8.44976 24.8005 10.4182C24.7875 11.1863 24.2296 11.8276 23.4756 11.9413C22.0044 12.1634 20.2819 12.2306 18.7577 12.2306Z" fill="#1E1C28" fill-opacity="0.4"/>
</g>
</svg>
