<svg width="26" height="26" viewBox="0 0 26 26" fill="none" xmlns="http://www.w3.org/2000/svg">
<path fill-rule="evenodd" clip-rule="evenodd" d="M8.30375 3.79163C5.56292 3.79163 3.79167 5.66904 3.79167 8.57563V17.4243C3.79167 20.3309 5.56292 22.2083 8.30375 22.2083H17.6941C20.436 22.2083 22.2083 20.3309 22.2083 17.4243V8.57563C22.2083 5.66904 20.436 3.79163 17.6952 3.79163H8.30375ZM17.6941 23.8333H8.30375C4.63233 23.8333 2.16667 21.2571 2.16667 17.4243V8.57563C2.16667 4.74279 4.63233 2.16663 8.30375 2.16663H17.6952C21.3666 2.16663 23.8333 4.74279 23.8333 8.57563V17.4243C23.8333 21.2571 21.3666 23.8333 17.6941 23.8333Z" fill="#1E1C28" fill-opacity="0.4"/>
<mask id="path-2-outside-1_5_69529" maskUnits="userSpaceOnUse" x="5.99935" y="8.99988" width="14" height="7" fill="black">
<rect fill="white" x="5.99935" y="8.99988" width="14" height="7"/>
<path d="M9.31966 9.99988C9.55374 9.99988 9.76229 10.1408 9.84994 10.3583C9.85114 10.3612 9.85272 10.3641 9.85384 10.3671L11.5941 14.9803C11.6848 15.2208 11.5639 15.489 11.3236 15.58C11.2694 15.6004 11.2132 15.6102 11.1585 15.6102C10.9706 15.6101 10.7934 15.4956 10.723 15.3094L10.4036 14.4618H8.22396L7.90072 15.3104C7.80919 15.5506 7.54042 15.6712 7.30013 15.58C7.05977 15.4884 6.93904 15.2188 7.0306 14.9784L8.78744 10.3661C8.7884 10.3635 8.78932 10.3609 8.79037 10.3583C8.87797 10.141 9.08575 10 9.31966 9.99988ZM14.8255 10.0009C15.8246 10.0009 16.6379 10.8014 16.638 11.786C16.638 12.7707 15.8247 13.5721 14.8255 13.5721C14.6341 13.5721 14.2783 13.5743 13.9886 13.576V15.1444C13.9886 15.4016 13.7799 15.6102 13.5228 15.6102C13.2656 15.6102 13.057 15.4016 13.057 15.1444V10.4657C13.0572 10.2121 13.2699 10.0009 13.5228 10.0009H14.8255ZM18.5335 10.0009C18.7906 10.0009 18.9991 10.2087 18.9994 10.4657V15.0604C18.9993 15.3175 18.7906 15.5262 18.5335 15.5262C18.2766 15.526 18.0678 15.3174 18.0677 15.0604V10.4657C18.0679 10.2089 18.2767 10.0011 18.5335 10.0009ZM8.57845 13.5302H10.0521L9.31869 11.5878L8.57845 13.5302ZM13.9925 11.786C13.9925 11.9811 13.994 12.3468 13.9954 12.6444C14.2842 12.6426 14.635 12.6405 14.8255 12.6405C15.3028 12.6405 15.7064 12.2492 15.7064 11.786C15.7063 11.3229 15.3028 10.9315 14.8255 10.9315H13.9906C13.9917 11.2414 13.9925 11.6206 13.9925 11.786Z"/>
</mask>
<path d="M9.31966 9.99988C9.55374 9.99988 9.76229 10.1408 9.84994 10.3583C9.85114 10.3612 9.85272 10.3641 9.85384 10.3671L11.5941 14.9803C11.6848 15.2208 11.5639 15.489 11.3236 15.58C11.2694 15.6004 11.2132 15.6102 11.1585 15.6102C10.9706 15.6101 10.7934 15.4956 10.723 15.3094L10.4036 14.4618H8.22396L7.90072 15.3104C7.80919 15.5506 7.54042 15.6712 7.30013 15.58C7.05977 15.4884 6.93904 15.2188 7.0306 14.9784L8.78744 10.3661C8.7884 10.3635 8.78932 10.3609 8.79037 10.3583C8.87797 10.141 9.08575 10 9.31966 9.99988ZM14.8255 10.0009C15.8246 10.0009 16.6379 10.8014 16.638 11.786C16.638 12.7707 15.8247 13.5721 14.8255 13.5721C14.6341 13.5721 14.2783 13.5743 13.9886 13.576V15.1444C13.9886 15.4016 13.7799 15.6102 13.5228 15.6102C13.2656 15.6102 13.057 15.4016 13.057 15.1444V10.4657C13.0572 10.2121 13.2699 10.0009 13.5228 10.0009H14.8255ZM18.5335 10.0009C18.7906 10.0009 18.9991 10.2087 18.9994 10.4657V15.0604C18.9993 15.3175 18.7906 15.5262 18.5335 15.5262C18.2766 15.526 18.0678 15.3174 18.0677 15.0604V10.4657C18.0679 10.2089 18.2767 10.0011 18.5335 10.0009ZM8.57845 13.5302H10.0521L9.31869 11.5878L8.57845 13.5302ZM13.9925 11.786C13.9925 11.9811 13.994 12.3468 13.9954 12.6444C14.2842 12.6426 14.635 12.6405 14.8255 12.6405C15.3028 12.6405 15.7064 12.2492 15.7064 11.786C15.7063 11.3229 15.3028 10.9315 14.8255 10.9315H13.9906C13.9917 11.2414 13.9925 11.6206 13.9925 11.786Z" fill="#1E1C28" fill-opacity="0.4"/>
<path d="M9.31966 9.99988V9.79988L9.31953 9.79988L9.31966 9.99988ZM9.84994 10.3583L9.66444 10.433L9.66485 10.434L9.84994 10.3583ZM9.85384 10.3671L10.041 10.2965L10.041 10.2965L9.85384 10.3671ZM11.5941 14.9803L11.7812 14.9098L11.7812 14.9098L11.5941 14.9803ZM11.3236 15.58L11.3942 15.7671L11.3944 15.767L11.3236 15.58ZM11.1585 15.6102L11.1584 15.8102H11.1585V15.6102ZM10.723 15.3094L10.5358 15.38L10.5359 15.3802L10.723 15.3094ZM10.4036 14.4618L10.5908 14.3913L10.542 14.2618H10.4036V14.4618ZM8.22396 14.4618V14.2618H8.08612L8.03706 14.3906L8.22396 14.4618ZM7.90072 15.3104L8.08761 15.3816L8.08762 15.3816L7.90072 15.3104ZM7.30013 15.58L7.22894 15.7669L7.22912 15.7669L7.30013 15.58ZM7.0306 14.9784L7.2175 15.0496L7.2175 15.0496L7.0306 14.9784ZM8.78744 10.3661L8.97435 10.4373L8.9751 10.4352L8.78744 10.3661ZM8.79037 10.3583L8.60487 10.2835L8.6047 10.2839L8.79037 10.3583ZM16.638 11.786H16.838V11.786L16.638 11.786ZM14.8255 13.5721V13.3721V13.5721ZM13.9886 13.576L13.9874 13.3761L13.7886 13.3773V13.576H13.9886ZM13.5228 15.6102V15.8102H13.5228L13.5228 15.6102ZM13.057 10.4657L12.857 10.4655V10.4657H13.057ZM18.5335 10.0009V9.80085L18.5334 9.80085L18.5335 10.0009ZM18.9994 10.4657H19.1994V10.4655L18.9994 10.4657ZM18.9994 15.0604L19.1994 15.0605V15.0604H18.9994ZM18.5335 15.5262L18.5334 15.7262H18.5335V15.5262ZM18.0677 15.0604H17.8677V15.0605L18.0677 15.0604ZM18.0677 10.4657L17.8677 10.4655V10.4657H18.0677ZM8.57845 13.5302L8.39156 13.4589L8.2882 13.7302H8.57845V13.5302ZM10.0521 13.5302V13.7302H10.3414L10.2392 13.4595L10.0521 13.5302ZM9.31869 11.5878L9.50579 11.5171L9.31955 11.0239L9.1318 11.5165L9.31869 11.5878ZM13.9925 11.786H14.1925V11.786L13.9925 11.786ZM13.9954 12.6444L13.7954 12.6453L13.7964 12.8456L13.9967 12.8444L13.9954 12.6444ZM14.8255 12.6405V12.4405V12.6405ZM15.7064 11.786H15.9064V11.786L15.7064 11.786ZM13.9906 10.9315V10.7315H13.7898L13.7906 10.9322L13.9906 10.9315ZM9.31966 9.99988V10.1999C9.47198 10.1999 9.60723 10.2911 9.66444 10.433L9.84994 10.3583L10.0354 10.2835C9.91735 9.99055 9.6355 9.79988 9.31966 9.79988V9.99988ZM9.84994 10.3583L9.66485 10.434C9.66659 10.4383 9.66816 10.4418 9.66915 10.4439C9.66966 10.445 9.6701 10.446 9.67038 10.4466C9.67053 10.4469 9.67066 10.4472 9.67075 10.4474C9.67086 10.4476 9.6709 10.4477 9.67095 10.4478C9.67118 10.4483 9.6707 10.4473 9.67004 10.4458C9.66935 10.4442 9.66812 10.4414 9.66672 10.4377L9.85384 10.3671L10.041 10.2965C10.039 10.2913 10.0372 10.2869 10.0358 10.2839C10.0345 10.2809 10.0333 10.2785 10.0329 10.2775C10.0322 10.2759 10.0325 10.2766 10.0326 10.277C10.033 10.2777 10.0339 10.2797 10.035 10.2825L9.84994 10.3583ZM9.85384 10.3671L9.66671 10.4377L11.4069 15.0509L11.5941 14.9803L11.7812 14.9098L10.041 10.2965L9.85384 10.3671ZM11.5941 14.9803L11.4069 15.0509C11.4588 15.1883 11.3897 15.3411 11.2528 15.3929L11.3236 15.58L11.3944 15.767C11.7381 15.6369 11.9108 15.2534 11.7812 14.9098L11.5941 14.9803ZM11.3236 15.58L11.2529 15.3928C11.2217 15.4047 11.1894 15.4102 11.1585 15.4102V15.6102V15.8102C11.237 15.8102 11.3172 15.7961 11.3942 15.7671L11.3236 15.58ZM11.1585 15.6102L11.1587 15.4102C11.0508 15.4102 10.95 15.3443 10.91 15.2387L10.723 15.3094L10.5359 15.3802C10.6368 15.6469 10.8903 15.8101 11.1584 15.8102L11.1585 15.6102ZM10.723 15.3094L10.9101 15.2389L10.5908 14.3913L10.4036 14.4618L10.2165 14.5323L10.5358 15.38L10.723 15.3094ZM10.4036 14.4618V14.2618H8.22396V14.4618V14.6618H10.4036V14.4618ZM8.22396 14.4618L8.03706 14.3906L7.71382 15.2392L7.90072 15.3104L8.08762 15.3816L8.41086 14.533L8.22396 14.4618ZM7.90072 15.3104L7.71383 15.2392C7.66161 15.3762 7.50827 15.4451 7.37115 15.393L7.30013 15.58L7.22912 15.7669C7.57257 15.8974 7.95677 15.725 8.08761 15.3816L7.90072 15.3104ZM7.30013 15.58L7.37133 15.3931C7.23429 15.3409 7.16522 15.1868 7.2175 15.0496L7.0306 14.9784L6.8437 14.9072C6.71286 15.2507 6.88526 15.6359 7.22894 15.7669L7.30013 15.58ZM7.0306 14.9784L7.2175 15.0496L8.97434 10.4373L8.78744 10.3661L8.60054 10.2949L6.8437 14.9072L7.0306 14.9784ZM8.78744 10.3661L8.9751 10.4352C8.97544 10.4343 8.97578 10.4334 8.97598 10.4328C8.97622 10.4322 8.97634 10.4319 8.97643 10.4316C8.97662 10.4311 8.97643 10.4316 8.97603 10.4326L8.79037 10.3583L8.6047 10.2839C8.60326 10.2875 8.60209 10.2906 8.60131 10.2927C8.60092 10.2938 8.60057 10.2948 8.60033 10.2954C8.60005 10.2962 8.59991 10.2966 8.59978 10.2969L8.78744 10.3661ZM8.79037 10.3583L8.97586 10.433C9.03313 10.291 9.16783 10.2 9.3198 10.1999L9.31966 9.99988L9.31953 9.79988C9.00367 9.80009 8.7228 9.99093 8.60487 10.2835L8.79037 10.3583ZM14.8255 10.0009V10.2009C15.717 10.2009 16.4379 10.9147 16.438 11.786L16.638 11.786L16.838 11.786C16.8379 10.6881 15.9322 9.80085 14.8255 9.80085V10.0009ZM16.638 11.786H16.438C16.438 12.6575 15.717 13.3721 14.8255 13.3721V13.5721V13.7721C15.9324 13.7721 16.838 12.884 16.838 11.786H16.638ZM14.8255 13.5721V13.3721C14.6334 13.3721 14.2767 13.3743 13.9874 13.3761L13.9886 13.576L13.9898 13.776C14.2798 13.7743 14.6349 13.7721 14.8255 13.7721V13.5721ZM13.9886 13.576H13.7886V15.1444H13.9886H14.1886V13.576H13.9886ZM13.9886 15.1444H13.7886C13.7886 15.2911 13.6695 15.4102 13.5228 15.4102L13.5228 15.6102L13.5228 15.8102C13.8904 15.8102 14.1886 15.512 14.1886 15.1444H13.9886ZM13.5228 15.6102V15.4102C13.3761 15.4102 13.257 15.2911 13.257 15.1444H13.057H12.857C12.857 15.512 13.1552 15.8102 13.5228 15.8102V15.6102ZM13.057 15.1444H13.257V10.4657H13.057H12.857V15.1444H13.057ZM13.057 10.4657L13.257 10.4659C13.2571 10.3232 13.3798 10.2009 13.5228 10.2009V10.0009V9.80085C13.16 9.80085 12.8573 10.1011 12.857 10.4655L13.057 10.4657ZM13.5228 10.0009V10.2009H14.8255V10.0009V9.80085H13.5228V10.0009ZM18.5335 10.0009V10.2009C18.6805 10.2009 18.7992 10.3196 18.7994 10.4659L18.9994 10.4657L19.1994 10.4655C19.199 10.0979 18.9007 9.80085 18.5335 9.80085V10.0009ZM18.9994 10.4657H18.7994V15.0604H18.9994H19.1994V10.4657H18.9994ZM18.9994 15.0604L18.7994 15.0603C18.7993 15.2071 18.6801 15.3262 18.5335 15.3262V15.5262V15.7262C18.9012 15.7262 19.1992 15.4279 19.1994 15.0605L18.9994 15.0604ZM18.5335 15.5262L18.5337 15.3262C18.387 15.3261 18.2678 15.2068 18.2677 15.0603L18.0677 15.0604L17.8677 15.0605C17.8679 15.4279 18.1662 15.7259 18.5334 15.7262L18.5335 15.5262ZM18.0677 15.0604H18.2677V10.4657H18.0677H17.8677V15.0604H18.0677ZM18.0677 10.4657L18.2677 10.4659C18.2678 10.3199 18.3866 10.201 18.5337 10.2009L18.5335 10.0009L18.5334 9.80085C18.1667 9.80115 17.868 10.0978 17.8677 10.4655L18.0677 10.4657ZM8.57845 13.5302V13.7302H10.0521V13.5302V13.3302H8.57845V13.5302ZM10.0521 13.5302L10.2392 13.4595L9.50579 11.5171L9.31869 11.5878L9.13158 11.6584L9.86498 13.6008L10.0521 13.5302ZM9.31869 11.5878L9.1318 11.5165L8.39156 13.4589L8.57845 13.5302L8.76534 13.6014L9.50558 11.659L9.31869 11.5878ZM13.9925 11.786H13.7925C13.7925 11.9817 13.7941 12.3478 13.7954 12.6453L13.9954 12.6444L14.1954 12.6435C14.194 12.3457 14.1925 11.9805 14.1925 11.786H13.9925ZM13.9954 12.6444L13.9967 12.8444C14.2857 12.8426 14.6357 12.8405 14.8255 12.8405V12.6405V12.4405C14.6342 12.4405 14.2826 12.4426 13.9942 12.4444L13.9954 12.6444ZM14.8255 12.6405V12.8405C15.4075 12.8405 15.9064 12.3653 15.9064 11.786H15.7064H15.5064C15.5064 12.133 15.1982 12.4405 14.8255 12.4405V12.6405ZM15.7064 11.786L15.9064 11.786C15.9062 11.2068 15.4075 10.7315 14.8255 10.7315V10.9315V11.1315C15.198 11.1315 15.5063 11.4391 15.5064 11.7861L15.7064 11.786ZM14.8255 10.9315V10.7315H13.9906V10.9315V11.1315H14.8255V10.9315ZM13.9906 10.9315L13.7906 10.9322C13.7917 11.242 13.7925 11.6209 13.7925 11.786L13.9925 11.786L14.1925 11.786C14.1925 11.6202 14.1917 11.2408 14.1906 10.9308L13.9906 10.9315Z" fill="#1E1C28" fill-opacity="0.4" mask="url(#path-2-outside-1_5_69529)"/>
</svg>
