<svg width="973" height="1080" viewBox="0 0 973 1080" fill="none" xmlns="http://www.w3.org/2000/svg">
<path d="M703 824.318H791.538L703 735.78V824.318Z" fill="#F7F6F9"/>
<path d="M0 543.439H88.5379L0 454.902V543.439Z" fill="#F7F6F9"/>
<path d="M973.193 824.318L973.193 735.78L884.655 824.318L973.193 824.318Z" fill="#F7F6F9"/>
<path d="M88.5379 177.076L88.5379 88.5379L0 177.076L88.5379 177.076Z" fill="#F7F6F9"/>
<path d="M884.655 645.716H973.193L884.655 557.178V645.716Z" fill="#9C4EDC"/>
<path d="M88.5379 277.826L88.5379 366.364L177.076 277.826L88.5379 277.826Z" fill="#9C4EDC"/>
<path d="M530.076 992.235H618.614L530.076 903.697V992.235Z" fill="#9C4EDC"/>
<path d="M88.5379 815.159L88.5379 726.621L0 815.159L88.5379 815.159Z" fill="#9C4EDC"/>
<path d="M441.538 992.235L441.538 1080.77L530.076 992.235L441.538 992.235Z" fill="#D8BCEF"/>
<path d="M88.5379 815.159L88.5379 903.697L177.076 815.159L88.5379 815.159Z" fill="#D8BCEF"/>
<path d="M441.538 992.235L441.538 903.697L353 992.235L441.538 992.235Z" fill="#F7F6F9"/>
<path d="M88.5379 992.235L88.5379 903.697L0 992.235L88.5379 992.235Z" fill="#F7F6F9"/>
<path d="M884.655 827.371L796.117 827.371L884.655 915.909L884.655 827.371Z" fill="#D8BCEF"/>
<path d="M88.5378 366.364L-3.04067e-05 366.364L88.5378 454.902L88.5378 366.364Z" fill="#D8BCEF"/>
<path d="M88.5379 1.0558e-06L88.5379 88.5379L177.076 0L88.5379 1.0558e-06Z" fill="#D8BCEF"/>
</svg>
