<svg width="26" height="26" viewBox="0 0 26 26" fill="none" xmlns="http://www.w3.org/2000/svg">
<path fill-rule="evenodd" clip-rule="evenodd" d="M19.3774 13.1587C18.9787 13.1587 18.631 12.8652 18.5735 12.4589C18.5118 12.0137 18.8205 11.6031 19.2658 11.5413C20.3925 11.3832 21.2429 10.406 21.245 9.26632C21.245 8.1364 20.4347 7.1809 19.3178 6.99782C18.8758 6.92524 18.5757 6.50707 18.6483 6.06399C18.722 5.6209 19.1369 5.32407 19.5821 5.39449C21.4866 5.70757 22.87 7.3369 22.87 9.26848C22.8657 11.2131 21.413 12.8814 19.49 13.1512C19.4521 13.1566 19.4142 13.1587 19.3774 13.1587Z" fill="#1E1C28" fill-opacity="0.4"/>
<mask id="mask0_5_69523" style="mask-type:luminance" maskUnits="userSpaceOnUse" x="20" y="15" width="5" height="6">
<path fill-rule="evenodd" clip-rule="evenodd" d="M20.5596 15.1685H24.6698V20.0755H20.5596V15.1685Z" fill="white"/>
</mask>
<g mask="url(#mask0_5_69523)">
<path fill-rule="evenodd" clip-rule="evenodd" d="M22.5998 20.0755C22.2727 20.0755 21.9639 19.8762 21.8404 19.5522C21.6801 19.133 21.8913 18.6628 22.3106 18.5036C23.0451 18.2241 23.0451 17.9153 23.0451 17.7669C23.0451 17.2924 22.4417 16.9609 21.2522 16.7832C20.8091 16.7161 20.5025 16.3033 20.5686 15.8581C20.6347 15.4139 21.0463 15.1182 21.4938 15.1756C24.1187 15.5688 24.6701 16.8017 24.6701 17.7669C24.6701 18.3562 24.4383 19.432 22.8891 20.0224C22.7938 20.0582 22.6963 20.0755 22.5998 20.0755Z" fill="#1E1C28" fill-opacity="0.4"/>
</g>
<path fill-rule="evenodd" clip-rule="evenodd" d="M12.8773 17.2402C10.3033 17.2402 7.23417 17.5566 7.23417 19.0624C7.23417 20.5802 10.3033 20.8987 12.8773 20.8987C15.4513 20.8987 18.5193 20.5834 18.5193 19.0808C18.5193 17.5598 15.4513 17.2402 12.8773 17.2402ZM12.8773 22.5237C11.08 22.5237 5.60917 22.5237 5.60917 19.0624C5.60917 15.6152 11.08 15.6152 12.8773 15.6152C14.6745 15.6152 20.1443 15.6152 20.1443 19.0808C20.1443 22.5237 14.8652 22.5237 12.8773 22.5237Z" fill="#1E1C28" fill-opacity="0.4"/>
<path fill-rule="evenodd" clip-rule="evenodd" d="M12.8773 5.95837C11.0443 5.95837 9.55359 7.45012 9.55359 9.28312C9.55034 10.1715 9.89051 11.0024 10.5134 11.6296C11.1363 12.2569 11.9662 12.6046 12.8502 12.6079L12.8773 13.4204V12.6079C14.7103 12.6079 16.202 11.1172 16.202 9.28312C16.202 7.45012 14.7103 5.95837 12.8773 5.95837ZM12.8773 14.2329H12.848C11.5263 14.2285 10.2881 13.7107 9.36076 12.7747C8.43126 11.8398 7.92317 10.5983 7.92859 9.27987C7.92859 6.55421 10.1483 4.33337 12.8773 4.33337C15.6073 4.33337 17.827 6.55421 17.827 9.28312C17.827 12.012 15.6073 14.2329 12.8773 14.2329Z" fill="#1E1C28" fill-opacity="0.4"/>
<path fill-rule="evenodd" clip-rule="evenodd" d="M6.37617 13.1587C6.33934 13.1587 6.30142 13.1565 6.26351 13.1511C4.34059 12.8814 2.88892 11.213 2.88459 9.27061C2.88459 7.33686 4.26801 5.70753 6.17251 5.39444C6.62859 5.32294 7.03267 5.62303 7.10634 6.06394C7.17892 6.50703 6.87884 6.9252 6.43684 6.99778C5.31992 7.18086 4.50959 8.13636 4.50959 9.26845C4.51176 10.4059 5.36217 11.3842 6.48776 11.5413C6.93301 11.603 7.24176 12.0136 7.18001 12.4589C7.12259 12.8651 6.77484 13.1587 6.37617 13.1587Z" fill="#1E1C28" fill-opacity="0.4"/>
<path fill-rule="evenodd" clip-rule="evenodd" d="M3.15478 20.0755C3.05836 20.0755 2.96086 20.0582 2.86553 20.0224C1.31528 19.4309 1.08344 18.3552 1.08344 17.7669C1.08344 16.8028 1.63486 15.5688 4.26086 15.1756C4.70828 15.1193 5.11778 15.4139 5.18494 15.8581C5.25103 16.3033 4.94444 16.7161 4.50136 16.7833C3.31186 16.9609 2.70844 17.2924 2.70844 17.7669C2.70844 17.9153 2.70844 18.223 3.44403 18.5036C3.86328 18.6628 4.07453 19.133 3.91419 19.5523C3.79069 19.8762 3.48194 20.0755 3.15478 20.0755Z" fill="#1E1C28" fill-opacity="0.4"/>
</svg>
